<svg xmlns="http://www.w3.org/2000/svg" viewBox="0 0 1393.2 954.7"><title>burst_1024_30</title><path d="M46.4,0c-0.4,1.1-.9,2.2-1.3,3.3L420.8,122.1c0.5-1.1,1.1-2.2,1.6-3.2Z" style="fill:#fff;opacity:0.3"/><path d="M189.3,64.5l-1,3.4,228,63.8c0.5-1.1,1-2.2,1.4-3.3Z" style="fill:#fff;opacity:0.3"/><path d="M178.2,99.2l-0.7,3.5,231.3,48.1c0.4-1.1.8-2.3,1.2-3.4Z" style="fill:#fff;opacity:0.3"/><path d="M169.2,134.5l-0.5,3.5,233.8,32.5c0.3-1.2.7-2.3,1-3.5Z" style="fill:#fff;opacity:0.3"/><path d="M162.1,172.7l-0.2,3.6,235.7,14.5q0.31-1.77.8-3.5Z" style="fill:#fff;opacity:0.3"/><path d="M30.9,44.7c-0.4,1.1-.7,2.3-1,3.4l382.6,93.1c0.4-1.1.9-2.2,1.4-3.3Z" style="fill:#fff;opacity:0.3"/><path d="M18.7,89.4c-0.3,1.2-.5,2.3-0.8,3.5l387.6,67.7c0.4-1.1.7-2.3,1.1-3.4Z" style="fill:#fff;opacity:0.3"/><path d="M9,138.1c-0.2,1.2-.4,2.4-0.6,3.5l391.4,39.2c0.3-1.2.6-2.3,0.9-3.5Z" style="fill:#fff;opacity:0.3"/><path d="M3.2,183.1l-0.3,3.6,392.9,13.6c0.2-1.2.4-2.4,0.7-3.6Z" style="fill:#fff;opacity:0.3"/><path d="M160.6,206.9v3.6L394,210.8c0.2-1.2.3-2.4,0.5-3.6Z" style="fill:#fff;opacity:0.3"/><path d="M159.2,243.4l0.2,3.6,232.4-15.5,0.3-3.6Z" style="fill:#fff;opacity:0.3"/><path d="M160.2,277.2l0.5,3.5,230.5-29.6v-3.6Z" style="fill:#fff;opacity:0.3"/><path d="M163,311.7l0.7,3.5,228.1-43.1c-0.1-1.2-.2-2.4-0.2-3.6Z" style="fill:#fff;opacity:0.3"/><path d="M0.1,230.4c0,1.2-.1,2.4-0.1,3.6l392.8-12.9c0.1-1.2.3-2.4,0.4-3.6Z" style="fill:#fff;opacity:0.3"/><path d="M0.2,276.2c0,1.2.1,2.4,0.1,3.6l391-38.7c0-1.2.1-2.4,0.1-3.6Z" style="fill:#fff;opacity:0.3"/><path d="M3.1,320.3c0.1,1.2.2,2.4,0.4,3.6l387.8-62.7v-3.6Z" style="fill:#fff;opacity:0.3"/><path d="M169.4,351.3l1,3.4,223.3-61.6c-0.2-1.2-.3-2.4-0.4-3.6Z" style="fill:#fff;opacity:0.3"/><path d="M177.2,384.5l1.2,3.4L397,313c-0.2-1.2-.5-2.4-0.7-3.5Z" style="fill:#fff;opacity:0.3"/><path d="M186.8,418.3l1.4,3.3L402,333.9c-0.3-1.2-.6-2.3-0.9-3.5Z" style="fill:#fff;opacity:0.3"/><path d="M9.8,370.9c0.2,1.2.4,2.4,0.6,3.5l382.1-91.6-0.3-3.6Z" style="fill:#fff;opacity:0.3"/><path d="M19.1,416.1c0.3,1.2.6,2.3,0.8,3.5L395.2,303.1l-0.6-3.6Z" style="fill:#fff;opacity:0.3"/><path d="M30.8,458.9c0.4,1.1.7,2.3,1.1,3.4L399.2,322.9c-0.3-1.2-.5-2.3-0.8-3.5Z" style="fill:#fff;opacity:0.3"/><path d="M46.6,504.5c0.4,1.1.9,2.2,1.3,3.3l357.9-161c-0.4-1.1-.7-2.3-1.1-3.4Z" style="fill:#fff;opacity:0.3"/><path d="M199.5,455.7l1.6,3.2L409.2,356.8c-0.4-1.1-.8-2.3-1.2-3.4Z" style="fill:#fff;opacity:0.3"/><path d="M214.4,489.1l1.8,3.1L417,376.2c-0.5-1.1-1-2.2-1.4-3.3Z" style="fill:#fff;opacity:0.3"/><path d="M231.2,521.4l2,3L426.1,395c-0.6-1.1-1.1-2.1-1.7-3.2Z" style="fill:#fff;opacity:0.3"/><path d="M251.3,554.6l2.2,2.8,183-144.2c-0.6-1-1.3-2-1.9-3.1Z" style="fill:#fff;opacity:0.3"/><path d="M65.2,548.1c0.5,1.1,1,2.2,1.5,3.2L412.9,366.6c-0.4-1.1-.9-2.2-1.3-3.3Z" style="fill:#fff;opacity:0.3"/><path d="M86.2,589.7c0.6,1,1.2,2.1,1.7,3.1L421.4,385.6l-1.5-3.3Z" style="fill:#fff;opacity:0.3"/><path d="M111.8,632.5c0.6,1,1.3,2,2,3L431.3,404.4c-0.6-1-1.2-2.1-1.8-3.1Z" style="fill:#fff;opacity:0.3"/><path d="M137.7,669.9c0.7,1,1.4,1.9,2.1,2.9l302-251.4c-0.7-1-1.3-2-2-3Z" style="fill:#fff;opacity:0.3"/><path d="M273,581.1l2.4,2.7L447.8,430.1c-0.7-1-1.4-2-2.1-2.9Z" style="fill:#fff;opacity:0.3"/><path d="M296.2,609.3l2.6,2.5L460.6,446.7c-0.8-.9-1.5-1.9-2.3-2.8Z" style="fill:#fff;opacity:0.3"/><path d="M319.5,633.9l2.7,2.3L473.7,461.5c-0.8-.9-1.6-1.7-2.4-2.6Z" style="fill:#fff;opacity:0.3"/><path d="M344.5,657.7l2.8,2.2L488.4,476.2c-0.9-.8-1.8-1.6-2.6-2.4Z" style="fill:#fff;opacity:0.3"/><path d="M167.3,707.1c0.8,0.9,1.6,1.8,2.3,2.7L454,438.5c-0.7-1-1.5-1.9-2.2-2.9Z" style="fill:#fff;opacity:0.3"/><path d="M198.2,741.1c0.8,0.9,1.7,1.7,2.5,2.6L466.9,454.2l-2.4-2.7Z" style="fill:#fff;opacity:0.3"/><path d="M478.1,466.1l-248,305.7,2.7,2.4L480.7,468.6A20.62,20.62,0,0,1,478.1,466.1Z" style="fill:#fff;opacity:0.3"/><path d="M372,678l3,2L503.7,489.4c-0.9-.8-1.9-1.5-2.8-2.3Z" style="fill:#fff;opacity:0.3"/><path d="M399.5,698.2l3.1,1.8L519.7,501.5c-1-.7-1.9-1.4-2.9-2.1Z" style="fill:#fff;opacity:0.3"/><path d="M428.8,717.6l3.2,1.6,105.5-206c-1-.6-2-1.3-3-1.9Z" style="fill:#fff;opacity:0.3"/><path d="M261.8,799l2.8,2.2L495.7,482.7l-2.7-2.4Z" style="fill:#fff;opacity:0.3"/><path d="M298.8,826.8c1,0.7,2,1.4,2.9,2L511.5,495.6c-1-.7-1.9-1.5-2.9-2.2Z" style="fill:#fff;opacity:0.3"/><path d="M336,851.2c1,0.6,2,1.2,3.1,1.9l189-345.8c-1-.7-2-1.3-3-2Z" style="fill:#fff;opacity:0.3"/><path d="M460.6,734.5l3.3,1.5,93.9-211.4c-1.1-.5-2.1-1.1-3.2-1.6Z" style="fill:#fff;opacity:0.3"/><path d="M495.3,751.8l3.4,1.2,78.1-219.6c-1.1-.5-2.2-1-3.3-1.4Z" style="fill:#fff;opacity:0.3"/><path d="M372.8,872.3c1.1,0.6,2.1,1.1,3.2,1.7L548.6,519.7c-1-.6-2.1-1.2-3.1-1.7Z" style="fill:#fff;opacity:0.3"/><path d="M417.8,894.1c1.1,0.5,2.2,1,3.3,1.4L567.4,529.1c-1.1-.5-2.2-1-3.2-1.5Z" style="fill:#fff;opacity:0.3"/><path d="M460.1,911.2c1.1,0.4,2.2.8,3.4,1.2L585.8,537c-1.1-.4-2.2-0.9-3.3-1.3Z" style="fill:#fff;opacity:0.3"/><path d="M527.8,762.7l3.4,1,64.5-223.1c-1.1-.4-2.3-0.8-3.4-1.2Z" style="fill:#fff;opacity:0.3"/><path d="M562.4,774.2l3.5,0.8,49.6-228.2-3.5-.9Z" style="fill:#fff;opacity:0.3"/><path d="M593.6,780l3.5,0.6L637,551.7c-1.2-.2-2.3-0.4-3.5-0.7Z" style="fill:#fff;opacity:0.3"/><path d="M627.4,787.5l3.6,0.4,26.5-233c-1.2-.1-2.4-0.3-3.5-0.5Z" style="fill:#fff;opacity:0.3"/><path d="M505.3,926.1c1.1,0.3,2.3.7,3.4,1l96.8-383.2c-1.1-.4-2.3-0.7-3.4-1.1Z" style="fill:#fff;opacity:0.3"/><path d="M549.8,937.4c1.2,0.3,2.3.5,3.5,0.8l71.5-389.1c-1.2-.3-2.3-0.6-3.5-0.8Z" style="fill:#fff;opacity:0.3"/><path d="M588.1,944.7c1.2,0.2,2.4.4,3.5,0.6l55.2-391.9c-1.2-.2-2.4-0.4-3.5-0.6Z" style="fill:#fff;opacity:0.3"/><path d="M665,791.1l3.6,0.1,9.3-234.5c-1.2-.1-2.4-0.1-3.6-0.2Z" style="fill:#fff;opacity:0.3"/><path d="M694.7,793h3.6l1.5-235.8h-3.6Z" style="fill:#fff;opacity:0.3"/><path d="M634.2,950.7l3.6,0.3,30-395-3.6-.3Z" style="fill:#fff;opacity:0.3"/><path d="M676.4,953.5c1.2,0,2.4.1,3.6,0.1l8-396.5c-1.2,0-2.4-.1-3.6-0.1Z" style="fill:#fff;opacity:0.3"/><path d="M717.1,954.7h3.6l-9.9-397.8c-1.2.1-2.4,0.1-3.6,0.1Z" style="fill:#fff;opacity:0.3"/><path d="M1348.1,4.8c-0.4-1.1-.8-2.2-1.3-3.3L968.8,121l1.5,3.3Z" style="fill:#fff;opacity:0.3"/><path d="M1204.8,69.4l-1-3.4L973.1,130.5c0.5,1.1,1,2.2,1.4,3.3Z" style="fill:#fff;opacity:0.3"/><path d="M1215.8,104.2l-0.7-3.5L980.8,149.4c0.4,1.1.8,2.3,1.2,3.4Z" style="fill:#fff;opacity:0.3"/><path d="M1224.5,139.5L1224,136,987.1,168.9c0.3,1.2.7,2.3,1,3.5Z" style="fill:#fff;opacity:0.3"/><path d="M1231.3,177.7l-0.2-3.6L992.2,188.8c0.3,1.2.5,2.4,0.8,3.5Z" style="fill:#fff;opacity:0.3"/><path d="M1363.3,49.5c-0.3-1.1-.7-2.3-1-3.4L977.2,139.8c0.4,1.1.9,2.2,1.3,3.4Z" style="fill:#fff;opacity:0.3"/><path d="M1375.3,94.4c-0.3-1.2-.5-2.3-0.8-3.5L984.2,159.1c0.4,1.1.8,2.3,1.1,3.4Z" style="fill:#fff;opacity:0.3"/><path d="M1384.8,143.1c-0.2-1.2-.4-2.4-0.6-3.5L989.9,179c0.3,1.2.6,2.3,0.9,3.5Z" style="fill:#fff;opacity:0.3"/><path d="M1390.4,188.1l-0.3-3.6-396,13.7,0.6,3.6Z" style="fill:#fff;opacity:0.3"/><path d="M1232.6,211.9v-3.6l-236.8.3c0.2,1.2.3,2.4,0.5,3.6Z" style="fill:#fff;opacity:0.3"/><path d="M1233.8,248.4l0.2-3.6L998.1,229.1c0.1,1.2.2,2.4,0.2,3.6Z" style="fill:#fff;opacity:0.3"/><path d="M1232.6,282.2l0.5-3.5-234-30v3.6Z" style="fill:#fff;opacity:0.3"/><path d="M1229.6,316.7l0.7-3.5L998.7,269.4c-0.1,1.2-.2,2.4-0.2,3.6Z" style="fill:#fff;opacity:0.3"/><path d="M1393.2,235.4c0-1.2-.1-2.4-0.1-3.6l-396-13c0.1,1.2.3,2.4,0.4,3.6Z" style="fill:#fff;opacity:0.3"/><path d="M998.8,242.3l394,39c0-1.2.1-2.4,0.1-3.6l-394.3-39A21.74,21.74,0,0,1,998.8,242.3Z" style="fill:#fff;opacity:0.3"/><path d="M1389.8,325.3c0.1-1.2.2-2.4,0.4-3.6L999,258.5c0,1.2,0,2.4-.1,3.6Z" style="fill:#fff;opacity:0.3"/><path d="M1222.8,356.2l1-3.4-227-62.6c-0.1,1.2-.3,2.4-0.5,3.6Z" style="fill:#fff;opacity:0.3"/><path d="M1214.9,389.3l1.2-3.4L993.8,309.8c-0.2,1.2-.4,2.4-0.7,3.5Z" style="fill:#fff;opacity:0.3"/><path d="M1205,423.1l1.4-3.3L989.1,330.6c-0.3,1.2-.6,2.3-0.9,3.5Z" style="fill:#fff;opacity:0.3"/><path d="M1382.8,375.9c0.2-1.2.4-2.3,0.6-3.5L997.9,279.9l-0.3,3.6Z" style="fill:#fff;opacity:0.3"/><path d="M1373.3,421c0.3-1.2.6-2.3,0.8-3.5L995.5,300l-0.6,3.6Z" style="fill:#fff;opacity:0.3"/><path d="M1361.3,463.8c0.4-1.1.7-2.3,1.1-3.4L991.7,319.7c-0.3,1.2-.5,2.3-0.8,3.5Z" style="fill:#fff;opacity:0.3"/><path d="M1345.3,509.2c0.4-1.1.9-2.2,1.3-3.3L985.5,343.4c-0.4,1.1-.7,2.3-1.1,3.4Z" style="fill:#fff;opacity:0.3"/><path d="M1192.1,460.4l1.6-3.2L982.2,353.4c-0.4,1.1-.8,2.3-1.2,3.4Z" style="fill:#fff;opacity:0.3"/><path d="M1177,493.7l1.8-3.1-204.1-118c-0.5,1.1-1,2.2-1.4,3.3Z" style="fill:#fff;opacity:0.3"/><path d="M1160,525.8l2-3L966,391.3c-0.5,1.1-1.1,2.1-1.7,3.2Z" style="fill:#fff;opacity:0.3"/><path d="M1139.7,558.9l2.2-2.8-186-146.6c-0.6,1-1.2,2.1-1.9,3.1Z" style="fill:#fff;opacity:0.3"/><path d="M1326.5,552.8c0.5-1.1,1-2.2,1.5-3.2L978.6,363.1c-0.4,1.1-.9,2.2-1.3,3.3Z" style="fill:#fff;opacity:0.3"/><path d="M1305.2,594.2c0.6-1,1.2-2.1,1.7-3.1L970.5,382l-1.5,3.3Z" style="fill:#fff;opacity:0.3"/><path d="M1279.5,636.9c0.7-1,1.3-2,2-3L961,400.6c-0.6,1-1.2,2.1-1.8,3.1Z" style="fill:#fff;opacity:0.3"/><path d="M1253.3,674.2c0.7-1,1.4-1.9,2.1-2.9L950.8,417.6c-0.6,1-1.3,2-2,3Z" style="fill:#fff;opacity:0.3"/><path d="M1117.8,585.2l2.4-2.7L944.9,426.4l-2.1,3Z" style="fill:#fff;opacity:0.3"/><path d="M1094.4,613.2l2.6-2.5L932.6,443c-0.7.9-1.5,1.9-2.3,2.8Z" style="fill:#fff;opacity:0.3"/><path d="M1071,637.6l2.7-2.3L919.9,457.9c-0.8.9-1.6,1.8-2.4,2.6Z" style="fill:#fff;opacity:0.3"/><path d="M1045.8,661.4l2.8-2.2L905.5,472.7c-0.9.8-1.7,1.6-2.6,2.5Z" style="fill:#fff;opacity:0.3"/><path d="M1223.5,711.3c0.8-.9,1.6-1.8,2.3-2.7l-287-273.8c-0.7,1-1.5,1.9-2.2,2.9Z" style="fill:#fff;opacity:0.3"/><path d="M1192.5,745.1c0.8-.9,1.7-1.7,2.5-2.6L926.5,450.4c-0.8.9-1.6,1.8-2.3,2.7Z" style="fill:#fff;opacity:0.3"/><path d="M1160.5,775.7l2.7-2.4-250-308.2c-0.8.9-1.7,1.7-2.5,2.6Z" style="fill:#fff;opacity:0.3"/><path d="M1018.2,681.5l3-2L890.6,486c-0.9.8-1.8,1.5-2.8,2.3Z" style="fill:#fff;opacity:0.3"/><path d="M990.7,701.5l3.1-1.8L875,498.3c-1,.7-1.9,1.4-2.9,2.1Z" style="fill:#fff;opacity:0.3"/><path d="M961.2,720.7l3.2-1.6-107-208.8c-1,.6-2,1.3-3,1.9Z" style="fill:#fff;opacity:0.3"/><path d="M1128.6,802.7l2.8-2.2-233-321.2-2.7,2.4Z" style="fill:#fff;opacity:0.3"/><path d="M1091.5,830.3c1-.7,2-1.4,2.9-2l-211.5-336-2.8,2.2Z" style="fill:#fff;opacity:0.3"/><path d="M1054.2,854.5c1-.6,2-1.2,3.1-1.9L866.8,504.1c-1,.7-2,1.4-3,2Z" style="fill:#fff;opacity:0.3"/><path d="M929.4,737.4l3.3-1.5-95.2-214c-1.1.6-2.1,1.1-3.2,1.7Z" style="fill:#fff;opacity:0.3"/><path d="M894.5,754.5l3.4-1.2L818.8,531c-1.1.5-2.2,1-3.3,1.4Z" style="fill:#fff;opacity:0.3"/><path d="M1017.2,875.4c1.1-.6,2.1-1.1,3.2-1.7L846.5,516.9c-1,.6-2.1,1.2-3.1,1.8Z" style="fill:#fff;opacity:0.3"/><path d="M972.1,897c1.1-.5,2.2-1,3.3-1.4L828,526.7c-1.1.5-2.2,1-3.2,1.5Z" style="fill:#fff;opacity:0.3"/><path d="M929.7,913.9c1.1-.4,2.2-0.8,3.4-1.2L810,534.8c-1.1.5-2.2,0.9-3.3,1.4Z" style="fill:#fff;opacity:0.3"/><path d="M862,765.2l3.4-1L800.2,538.6c-1.1.4-2.2,0.8-3.4,1.2Z" style="fill:#fff;opacity:0.3"/><path d="M828.5,775.5l3.5-.8L782,544.6c-1.1.3-2.3,0.7-3.4,1Z" style="fill:#fff;opacity:0.3"/><path d="M797,781.7l3.5-.6L760.3,550.2c-1.2.3-2.3,0.5-3.5,0.8Z" style="fill:#fff;opacity:0.3"/><path d="M763.9,788.9l3.6-.4L740.8,553.8c-1.2.2-2.4,0.3-3.5,0.5Z" style="fill:#fff;opacity:0.3"/><path d="M884.5,928.5c1.1-.3,2.3-0.6,3.4-1L790.5,541.9c-1.1.4-2.3,0.7-3.4,1.1Z" style="fill:#fff;opacity:0.3"/><path d="M841,939c1.2-.3,2.3-0.5,3.5-0.8l-71.9-391-3.5.9Z" style="fill:#fff;opacity:0.3"/><path d="M803.2,946.5c1.2-.2,2.4-0.4,3.5-0.6L751.3,552l-3.5.6Z" style="fill:#fff;opacity:0.3"/><path d="M728.9,792.4l3.6-.2-10-236.3-3.6.3Z" style="fill:#fff;opacity:0.3"/><path d="M758,951.9l3.6-.3L731.5,555.1c-1.2.1-2.4,0.3-3.6,0.4Z" style="fill:#fff;opacity:0.3"/></svg>