<svg xmlns="http://www.w3.org/2000/svg" viewBox="0 0 1393.2 954.7"><defs><style>.a{fill:#fff;}</style></defs><title>burst</title><path class="a" d="M49.6,13.4c-0.4,1.1-.9,2.2-1.3,3.3L424,135.5c0.5-1.1,1.1-2.2,1.6-3.2Z" transform="translate(-3.2 -13.4)"/><path class="a" d="M192.5,77.9l-1,3.4,228,63.8c0.5-1.1,1-2.2,1.4-3.3Z" transform="translate(-3.2 -13.4)"/><path class="a" d="M181.4,112.6l-0.7,3.5L412,164.2c0.4-1.1.8-2.3,1.2-3.4Z" transform="translate(-3.2 -13.4)"/><path class="a" d="M172.4,147.9l-0.5,3.5,233.8,32.5c0.3-1.2.7-2.3,1-3.5Z" transform="translate(-3.2 -13.4)"/><path class="a" d="M165.3,186.1l-0.2,3.6,235.7,14.5a35.9,35.9,0,0,1,.8-3.5Z" transform="translate(-3.2 -13.4)"/><path class="a" d="M34.1,58.1c-0.4,1.1-.7,2.3-1,3.4l382.6,93.1c0.4-1.1.9-2.2,1.4-3.3Z" transform="translate(-3.2 -13.4)"/><path class="a" d="M21.9,102.8c-0.3,1.2-.5,2.3-0.8,3.5L408.7,174c0.4-1.1.7-2.3,1.1-3.4Z" transform="translate(-3.2 -13.4)"/><path class="a" d="M12.2,151.5c-0.2,1.2-.4,2.4-0.6,3.5L403,194.2c0.3-1.2.6-2.3,0.9-3.5Z" transform="translate(-3.2 -13.4)"/><path class="a" d="M6.4,196.5l-0.3,3.6L399,213.7c0.2-1.2.4-2.4,0.7-3.6Z" transform="translate(-3.2 -13.4)"/><path class="a" d="M163.8,220.3v3.6l233.4,0.3c0.2-1.2.3-2.4,0.5-3.6Z" transform="translate(-3.2 -13.4)"/><path class="a" d="M162.4,256.8l0.2,3.6L395,244.9l0.3-3.6Z" transform="translate(-3.2 -13.4)"/><path class="a" d="M163.4,290.6l0.5,3.5,230.5-29.6v-3.6Z" transform="translate(-3.2 -13.4)"/><path class="a" d="M166.2,325.1l0.7,3.5L395,285.5c-0.1-1.2-.2-2.4-0.2-3.6Z" transform="translate(-3.2 -13.4)"/><path class="a" d="M3.3,243.8c0,1.2-.1,2.4-0.1,3.6L396,234.5c0.1-1.2.3-2.4,0.4-3.6Z" transform="translate(-3.2 -13.4)"/><path class="a" d="M3.4,289.6c0,1.2.1,2.4,0.1,3.6l391-38.7c0-1.2.1-2.4,0.1-3.6Z" transform="translate(-3.2 -13.4)"/><path class="a" d="M6.3,333.7c0.1,1.2.2,2.4,0.4,3.6l387.8-62.7V271Z" transform="translate(-3.2 -13.4)"/><path class="a" d="M172.6,364.7l1,3.4,223.3-61.6c-0.2-1.2-.3-2.4-0.4-3.6Z" transform="translate(-3.2 -13.4)"/><path class="a" d="M180.4,397.9l1.2,3.4,218.6-74.9c-0.2-1.2-.5-2.4-0.7-3.5Z" transform="translate(-3.2 -13.4)"/><path class="a" d="M190,431.7l1.4,3.3,213.8-87.7c-0.3-1.2-.6-2.3-0.9-3.5Z" transform="translate(-3.2 -13.4)"/><path class="a" d="M13,384.3c0.2,1.2.4,2.4,0.6,3.5l382.1-91.6-0.3-3.6Z" transform="translate(-3.2 -13.4)"/><path class="a" d="M22.3,429.5c0.3,1.2.6,2.3,0.8,3.5L398.4,316.5l-0.6-3.6Z" transform="translate(-3.2 -13.4)"/><path class="a" d="M34,472.3c0.4,1.1.7,2.3,1.1,3.4L402.4,336.3c-0.3-1.2-.5-2.3-0.8-3.5Z" transform="translate(-3.2 -13.4)"/><path class="a" d="M49.8,517.9c0.4,1.1.9,2.2,1.3,3.3L409,360.2c-0.4-1.1-.7-2.3-1.1-3.4Z" transform="translate(-3.2 -13.4)"/><path class="a" d="M202.7,469.1l1.6,3.2L412.4,370.2c-0.4-1.1-.8-2.3-1.2-3.4Z" transform="translate(-3.2 -13.4)"/><path class="a" d="M217.6,502.5l1.8,3.1,200.8-116c-0.5-1.1-1-2.2-1.4-3.3Z" transform="translate(-3.2 -13.4)"/><path class="a" d="M234.4,534.8l2,3L429.3,408.4c-0.6-1.1-1.1-2.1-1.7-3.2Z" transform="translate(-3.2 -13.4)"/><path class="a" d="M254.5,568l2.2,2.8,183-144.2c-0.6-1-1.3-2-1.9-3.1Z" transform="translate(-3.2 -13.4)"/><path class="a" d="M68.4,561.5c0.5,1.1,1,2.2,1.5,3.2L416.1,380c-0.4-1.1-.9-2.2-1.3-3.3Z" transform="translate(-3.2 -13.4)"/><path class="a" d="M89.4,603.1c0.6,1,1.2,2.1,1.7,3.1L424.6,399l-1.5-3.3Z" transform="translate(-3.2 -13.4)"/><path class="a" d="M115,645.9c0.6,1,1.3,2,2,3L434.5,417.8c-0.6-1-1.2-2.1-1.8-3.1Z" transform="translate(-3.2 -13.4)"/><path class="a" d="M140.9,683.3c0.7,1,1.4,1.9,2.1,2.9L445,434.8c-0.7-1-1.3-2-2-3Z" transform="translate(-3.2 -13.4)"/><path class="a" d="M276.2,594.5l2.4,2.7L451,443.5c-0.7-1-1.4-2-2.1-2.9Z" transform="translate(-3.2 -13.4)"/><path class="a" d="M299.4,622.7l2.6,2.5L463.8,460.1c-0.8-.9-1.5-1.9-2.3-2.8Z" transform="translate(-3.2 -13.4)"/><path class="a" d="M322.7,647.3l2.7,2.3L476.9,474.9c-0.8-.9-1.6-1.7-2.4-2.6Z" transform="translate(-3.2 -13.4)"/><path class="a" d="M347.7,671.1l2.8,2.2L491.6,489.6c-0.9-.8-1.8-1.6-2.6-2.4Z" transform="translate(-3.2 -13.4)"/><path class="a" d="M170.5,720.5c0.8,0.9,1.6,1.8,2.3,2.7L457.2,451.9c-0.7-1-1.5-1.9-2.2-2.9Z" transform="translate(-3.2 -13.4)"/><path class="a" d="M201.4,754.5c0.8,0.9,1.7,1.7,2.5,2.6L470.1,467.6l-2.4-2.7Z" transform="translate(-3.2 -13.4)"/><path class="a" d="M481.3,479.5l-248,305.7,2.7,2.4L483.9,482A20.62,20.62,0,0,1,481.3,479.5Z" transform="translate(-3.2 -13.4)"/><path class="a" d="M375.2,691.4l3,2L506.9,502.8c-0.9-.8-1.9-1.5-2.8-2.3Z" transform="translate(-3.2 -13.4)"/><path class="a" d="M402.7,711.6l3.1,1.8L522.9,514.9c-1-.7-1.9-1.4-2.9-2.1Z" transform="translate(-3.2 -13.4)"/><path class="a" d="M432,731l3.2,1.6,105.5-206c-1-.6-2-1.3-3-1.9Z" transform="translate(-3.2 -13.4)"/><path class="a" d="M265,812.4l2.8,2.2L498.9,496.1l-2.7-2.4Z" transform="translate(-3.2 -13.4)"/><path class="a" d="M302,840.2c1,0.7,2,1.4,2.9,2L514.7,509c-1-.7-1.9-1.5-2.9-2.2Z" transform="translate(-3.2 -13.4)"/><path class="a" d="M339.2,864.6c1,0.6,2,1.2,3.1,1.9l189-345.8c-1-.7-2-1.3-3-2Z" transform="translate(-3.2 -13.4)"/><path class="a" d="M463.8,747.9l3.3,1.5L561,538c-1.1-.5-2.1-1.1-3.2-1.6Z" transform="translate(-3.2 -13.4)"/><path class="a" d="M498.5,765.2l3.4,1.2L580,546.8c-1.1-.5-2.2-1-3.3-1.4Z" transform="translate(-3.2 -13.4)"/><path class="a" d="M376,885.7c1.1,0.6,2.1,1.1,3.2,1.7L551.8,533.1c-1-.6-2.1-1.2-3.1-1.7Z" transform="translate(-3.2 -13.4)"/><path class="a" d="M421,907.5c1.1,0.5,2.2,1,3.3,1.4L570.6,542.5c-1.1-.5-2.2-1-3.2-1.5Z" transform="translate(-3.2 -13.4)"/><path class="a" d="M463.3,924.6c1.1,0.4,2.2.8,3.4,1.2L589,550.4c-1.1-.4-2.2-0.9-3.3-1.3Z" transform="translate(-3.2 -13.4)"/><path class="a" d="M531,776.1l3.4,1L598.9,554c-1.1-.4-2.3-0.8-3.4-1.2Z" transform="translate(-3.2 -13.4)"/><path class="a" d="M565.6,787.6l3.5,0.8,49.6-228.2-3.5-.9Z" transform="translate(-3.2 -13.4)"/><path class="a" d="M596.8,793.4l3.5,0.6,39.9-228.9c-1.2-.2-2.3-0.4-3.5-0.7Z" transform="translate(-3.2 -13.4)"/><path class="a" d="M630.6,800.9l3.6,0.4,26.5-233c-1.2-.1-2.4-0.3-3.5-0.5Z" transform="translate(-3.2 -13.4)"/><path class="a" d="M508.5,939.5c1.1,0.3,2.3.7,3.4,1l96.8-383.2c-1.1-.4-2.3-0.7-3.4-1.1Z" transform="translate(-3.2 -13.4)"/><path class="a" d="M553,950.8c1.2,0.3,2.3.5,3.5,0.8L628,562.5c-1.2-.3-2.3-0.6-3.5-0.8Z" transform="translate(-3.2 -13.4)"/><path class="a" d="M591.3,958.1c1.2,0.2,2.4.4,3.5,0.6L650,566.8c-1.2-.2-2.4-0.4-3.5-0.6Z" transform="translate(-3.2 -13.4)"/><path class="a" d="M668.2,804.5l3.6,0.1,9.3-234.5c-1.2-.1-2.4-0.1-3.6-0.2Z" transform="translate(-3.2 -13.4)"/><path class="a" d="M697.9,806.4h3.6L703,570.6h-3.6Z" transform="translate(-3.2 -13.4)"/><path class="a" d="M637.4,964.1l3.6,0.3,30-395-3.6-.3Z" transform="translate(-3.2 -13.4)"/><path class="a" d="M679.6,966.9c1.2,0,2.4.1,3.6,0.1l8-396.5c-1.2,0-2.4-.1-3.6-0.1Z" transform="translate(-3.2 -13.4)"/><path class="a" d="M720.3,968.1h3.6L714,570.3c-1.2.1-2.4,0.1-3.6,0.1Z" transform="translate(-3.2 -13.4)"/><path class="a" d="M1351.3,18.2c-0.4-1.1-.8-2.2-1.3-3.3L972,134.4l1.5,3.3Z" transform="translate(-3.2 -13.4)"/><path class="a" d="M1208,82.8l-1-3.4L976.3,143.9c0.5,1.1,1,2.2,1.4,3.3Z" transform="translate(-3.2 -13.4)"/><path class="a" d="M1219,117.6l-0.7-3.5L984,162.8c0.4,1.1.8,2.3,1.2,3.4Z" transform="translate(-3.2 -13.4)"/><path class="a" d="M1227.7,152.9l-0.5-3.5L990.3,182.3c0.3,1.2.7,2.3,1,3.5Z" transform="translate(-3.2 -13.4)"/><path class="a" d="M1234.5,191.1l-0.2-3.6L995.4,202.2c0.3,1.2.5,2.4,0.8,3.5Z" transform="translate(-3.2 -13.4)"/><path class="a" d="M1366.5,62.9c-0.3-1.1-.7-2.3-1-3.4L980.4,153.2c0.4,1.1.9,2.2,1.3,3.4Z" transform="translate(-3.2 -13.4)"/><path class="a" d="M1378.5,107.8c-0.3-1.2-.5-2.3-0.8-3.5L987.4,172.5c0.4,1.1.8,2.3,1.1,3.4Z" transform="translate(-3.2 -13.4)"/><path class="a" d="M1388,156.5c-0.2-1.2-.4-2.4-0.6-3.5L993.1,192.4c0.3,1.2.6,2.3,0.9,3.5Z" transform="translate(-3.2 -13.4)"/><path class="a" d="M1393.6,201.5l-0.3-3.6-396,13.7,0.6,3.6Z" transform="translate(-3.2 -13.4)"/><path class="a" d="M1235.8,225.3v-3.6L999,222c0.2,1.2.3,2.4,0.5,3.6Z" transform="translate(-3.2 -13.4)"/><path class="a" d="M1237,261.8l0.2-3.6-235.9-15.7c0.1,1.2.2,2.4,0.2,3.6Z" transform="translate(-3.2 -13.4)"/><path class="a" d="M1235.8,295.6l0.5-3.5-234-30v3.6Z" transform="translate(-3.2 -13.4)"/><path class="a" d="M1232.8,330.1l0.7-3.5-231.6-43.8c-0.1,1.2-.2,2.4-0.2,3.6Z" transform="translate(-3.2 -13.4)"/><path class="a" d="M1396.4,248.8c0-1.2-.1-2.4-0.1-3.6l-396-13c0.1,1.2.3,2.4,0.4,3.6Z" transform="translate(-3.2 -13.4)"/><path class="a" d="M1002,255.7l394,39c0-1.2.1-2.4,0.1-3.6l-394.3-39A21.74,21.74,0,0,1,1002,255.7Z" transform="translate(-3.2 -13.4)"/><path class="a" d="M1393,338.7c0.1-1.2.2-2.4,0.4-3.6l-391.2-63.2c0,1.2,0,2.4-.1,3.6Z" transform="translate(-3.2 -13.4)"/><path class="a" d="M1226,369.6l1-3.4-227-62.6c-0.1,1.2-.3,2.4-0.5,3.6Z" transform="translate(-3.2 -13.4)"/><path class="a" d="M1218.1,402.7l1.2-3.4L997,323.2c-0.2,1.2-.4,2.4-0.7,3.5Z" transform="translate(-3.2 -13.4)"/><path class="a" d="M1208.2,436.5l1.4-3.3L992.3,344c-0.3,1.2-.6,2.3-0.9,3.5Z" transform="translate(-3.2 -13.4)"/><path class="a" d="M1386,389.3c0.2-1.2.4-2.3,0.6-3.5l-385.5-92.5-0.3,3.6Z" transform="translate(-3.2 -13.4)"/><path class="a" d="M1376.5,434.4c0.3-1.2.6-2.3,0.8-3.5L998.7,313.4l-0.6,3.6Z" transform="translate(-3.2 -13.4)"/><path class="a" d="M1364.5,477.2c0.4-1.1.7-2.3,1.1-3.4L994.9,333.1c-0.3,1.2-.5,2.3-0.8,3.5Z" transform="translate(-3.2 -13.4)"/><path class="a" d="M1348.5,522.6c0.4-1.1.9-2.2,1.3-3.3L988.7,356.8c-0.4,1.1-.7,2.3-1.1,3.4Z" transform="translate(-3.2 -13.4)"/><path class="a" d="M1195.3,473.8l1.6-3.2L985.4,366.8c-0.4,1.1-.8,2.3-1.2,3.4Z" transform="translate(-3.2 -13.4)"/><path class="a" d="M1180.2,507.1l1.8-3.1L977.9,386c-0.5,1.1-1,2.2-1.4,3.3Z" transform="translate(-3.2 -13.4)"/><path class="a" d="M1163.2,539.2l2-3-196-131.5c-0.5,1.1-1.1,2.1-1.7,3.2Z" transform="translate(-3.2 -13.4)"/><path class="a" d="M1142.9,572.3l2.2-2.8-186-146.6c-0.6,1-1.2,2.1-1.9,3.1Z" transform="translate(-3.2 -13.4)"/><path class="a" d="M1329.7,566.2c0.5-1.1,1-2.2,1.5-3.2L981.8,376.5c-0.4,1.1-.9,2.2-1.3,3.3Z" transform="translate(-3.2 -13.4)"/><path class="a" d="M1308.4,607.6c0.6-1,1.2-2.1,1.7-3.1L973.7,395.4l-1.5,3.3Z" transform="translate(-3.2 -13.4)"/><path class="a" d="M1282.7,650.3c0.7-1,1.3-2,2-3L964.2,414c-0.6,1-1.2,2.1-1.8,3.1Z" transform="translate(-3.2 -13.4)"/><path class="a" d="M1256.5,687.6c0.7-1,1.4-1.9,2.1-2.9L954,431c-0.6,1-1.3,2-2,3Z" transform="translate(-3.2 -13.4)"/><path class="a" d="M1121,598.6l2.4-2.7L948.1,439.8l-2.1,3Z" transform="translate(-3.2 -13.4)"/><path class="a" d="M1097.6,626.6l2.6-2.5L935.8,456.4c-0.7.9-1.5,1.9-2.3,2.8Z" transform="translate(-3.2 -13.4)"/><path class="a" d="M1074.2,651l2.7-2.3L923.1,471.3c-0.8.9-1.6,1.8-2.4,2.6Z" transform="translate(-3.2 -13.4)"/><path class="a" d="M1049,674.8l2.8-2.2L908.7,486.1c-0.9.8-1.7,1.6-2.6,2.5Z" transform="translate(-3.2 -13.4)"/><path class="a" d="M1226.7,724.7c0.8-.9,1.6-1.8,2.3-2.7L942,448.2c-0.7,1-1.5,1.9-2.2,2.9Z" transform="translate(-3.2 -13.4)"/><path class="a" d="M1195.7,758.5c0.8-.9,1.7-1.7,2.5-2.6L929.7,463.8c-0.8.9-1.6,1.8-2.3,2.7Z" transform="translate(-3.2 -13.4)"/><path class="a" d="M1163.7,789.1l2.7-2.4-250-308.2c-0.8.9-1.7,1.7-2.5,2.6Z" transform="translate(-3.2 -13.4)"/><path class="a" d="M1021.4,694.9l3-2L893.8,499.4c-0.9.8-1.8,1.5-2.8,2.3Z" transform="translate(-3.2 -13.4)"/><path class="a" d="M993.9,714.9l3.1-1.8L878.2,511.7c-1,.7-1.9,1.4-2.9,2.1Z" transform="translate(-3.2 -13.4)"/><path class="a" d="M964.4,734.1l3.2-1.6-107-208.8c-1,.6-2,1.3-3,1.9Z" transform="translate(-3.2 -13.4)"/><path class="a" d="M1131.8,816.1l2.8-2.2-233-321.2-2.7,2.4Z" transform="translate(-3.2 -13.4)"/><path class="a" d="M1094.7,843.7c1-.7,2-1.4,2.9-2l-211.5-336-2.8,2.2Z" transform="translate(-3.2 -13.4)"/><path class="a" d="M1057.4,867.9c1-.6,2-1.2,3.1-1.9L870,517.5c-1,.7-2,1.4-3,2Z" transform="translate(-3.2 -13.4)"/><path class="a" d="M932.6,750.8l3.3-1.5-95.2-214c-1.1.6-2.1,1.1-3.2,1.7Z" transform="translate(-3.2 -13.4)"/><path class="a" d="M897.7,767.9l3.4-1.2L822,544.4c-1.1.5-2.2,1-3.3,1.4Z" transform="translate(-3.2 -13.4)"/><path class="a" d="M1020.4,888.8c1.1-.6,2.1-1.1,3.2-1.7L849.7,530.3c-1,.6-2.1,1.2-3.1,1.8Z" transform="translate(-3.2 -13.4)"/><path class="a" d="M975.3,910.4c1.1-.5,2.2-1,3.3-1.4L831.2,540.1c-1.1.5-2.2,1-3.2,1.5Z" transform="translate(-3.2 -13.4)"/><path class="a" d="M932.9,927.3c1.1-.4,2.2-0.8,3.4-1.2L813.2,548.2c-1.1.5-2.2,0.9-3.3,1.4Z" transform="translate(-3.2 -13.4)"/><path class="a" d="M865.2,778.6l3.4-1L803.4,552c-1.1.4-2.2,0.8-3.4,1.2Z" transform="translate(-3.2 -13.4)"/><path class="a" d="M831.7,788.9l3.5-.8L785.2,558c-1.1.3-2.3,0.7-3.4,1Z" transform="translate(-3.2 -13.4)"/><path class="a" d="M800.2,795.1l3.5-.6L763.5,563.6c-1.2.3-2.3,0.5-3.5,0.8Z" transform="translate(-3.2 -13.4)"/><path class="a" d="M767.1,802.3l3.6-.4L744,567.2c-1.2.2-2.4,0.3-3.5,0.5Z" transform="translate(-3.2 -13.4)"/><path class="a" d="M887.7,941.9c1.1-.3,2.3-0.6,3.4-1L793.7,555.3c-1.1.4-2.3,0.7-3.4,1.1Z" transform="translate(-3.2 -13.4)"/><path class="a" d="M844.2,952.4c1.2-.3,2.3-0.5,3.5-0.8l-71.9-391-3.5.9Z" transform="translate(-3.2 -13.4)"/><path class="a" d="M806.4,959.9c1.2-.2,2.4-0.4,3.5-0.6L754.5,565.4l-3.5.6Z" transform="translate(-3.2 -13.4)"/><path class="a" d="M732.1,805.8l3.6-.2-10-236.3-3.6.3Z" transform="translate(-3.2 -13.4)"/><path class="a" d="M761.2,965.3l3.6-.3L734.7,568.5c-1.2.1-2.4,0.3-3.6,0.4Z" transform="translate(-3.2 -13.4)"/></svg>